<svg xmlns="http://www.w3.org/2000/svg" viewBox="0 0 417.96 273.96">
  <defs>
    <style>
      .cls-1{fill:none}.cls-1,.cls-2,.cls-3,.cls-4{stroke:#231f20;stroke-miterlimit:10}.cls-5{fill:#fff}.cls-5,.cls-7{font-family:TimesNewRomanPS-BoldMT,&quot;Times
      New
      Roman&quot;;font-size:12px;font-weight:700}.cls-2{fill:#f4d5a4}.cls-3{fill:#e6f2db}.cls-8{fill:#231f20;stroke-width:0}.cls-4{fill:#3c499f;stroke-width:2px}
    </style>
  </defs>
  <g id="Layer_1-2" data-name="Layer 1">
    <path class="cls-3" d="M.5 185.06h416.96v88.41H.5z" />
    <text class="cls-7" transform="translate(12.96 232.28)">
      <tspan x="0" y="0">C</tspan>
    </text>
    <path class="cls-3" d="M.5 92.78h416.96v88.41H.5z" />
    <text class="cls-7" transform="translate(13.3 140)">
      <tspan x="0" y="0">B</tspan>
    </text>
    <path class="cls-3" d="M.5.5h416.96v88.41H.5z" />
    <text transform="translate(13.3 47.72)"
      style="font-family:TimesNewRomanPS-BoldMT,&quot;Times New Roman&quot;;font-size:12px;font-weight:700;letter-spacing:-.06em">
      <tspan x="0" y="0">A</tspan>
    </text>
    <rect class="cls-2" x="54.44" y="2.85" width="83.24" height="83.7" rx="10" ry="10" />
    <rect class="cls-4" x="64.77" y="14.16" width="62.58" height="15.8" rx="3" ry="3" />
    <text class="cls-5" transform="translate(93.06 25.58)">
      <tspan x="0" y="0">0</tspan>
    </text>
    <rect class="cls-2" x="54.44" y="95.13" width="83.24" height="83.7" rx="10" ry="10" />
    <rect class="cls-4" x="64.77" y="106.44" width="62.58" height="15.8" rx="3" ry="3" />
    <text class="cls-5" transform="translate(93.06 117.86)">
      <tspan x="0" y="0">0</tspan>
    </text>
    <rect class="cls-2" x="54.44" y="187.41" width="83.24" height="83.7" rx="10" ry="10" />
    <rect class="cls-4" x="64.77" y="198.71" width="62.58" height="15.8" rx="3" ry="3" />
    <text class="cls-5" transform="translate(93.06 210.13)">
      <tspan x="0" y="0">0</tspan>
    </text>
    <rect class="cls-2" x="187.96" y="2.85" width="83.24" height="83.7" rx="10" ry="10" />
    <rect class="cls-4" x="198.29" y="14.16" width="62.58" height="15.8" rx="3" ry="3" />
    <text class="cls-5" transform="translate(226.58 25.58)">
      <tspan x="0" y="0">0</tspan>
    </text>
    <rect class="cls-4" x="198.29" y="34.66" width="62.58" height="15.8" rx="3" ry="3" />
    <text class="cls-5" transform="translate(226.58 46.08)">
      <tspan x="0" y="0">1</tspan>
    </text>
    <rect class="cls-2" x="187.96" y="95.13" width="83.24" height="83.7" rx="10" ry="10" />
    <rect class="cls-4" x="198.29" y="106.44" width="62.58" height="15.8" rx="3" ry="3" />
    <text class="cls-5" transform="translate(226.58 117.86)">
      <tspan x="0" y="0">0</tspan>
    </text>
    <rect class="cls-4" x="198.29" y="126.94" width="62.58" height="15.8" rx="3" ry="3" />
    <text class="cls-5" transform="translate(226.58 138.36)">
      <tspan x="0" y="0">1</tspan>
    </text>
    <rect class="cls-2" x="187.96" y="187.41" width="83.24" height="83.7" rx="10" ry="10" />
    <rect class="cls-4" x="198.29" y="198.71" width="62.58" height="15.8" rx="3" ry="3" />
    <text class="cls-5" transform="translate(226.58 210.13)">
      <tspan x="0" y="0">0</tspan>
    </text>
    <rect class="cls-4" x="198.29" y="219.22" width="62.58" height="15.8" rx="3" ry="3" />
    <text class="cls-5" transform="translate(226.58 230.64)">
      <tspan x="0" y="0">1</tspan>
    </text>
    <path class="cls-1" d="M198.29 21.39h-62.08" />
    <path class="cls-8" d="m138.19 18.48-10.84 2.91 10.84 2.9z" />
    <path class="cls-1" d="m198.29 21.39-65.48 83.7" />
    <path class="cls-8" d="m131.74 101.74-4.39 10.33 8.97-6.75z" />
    <path class="cls-1" d="m198.29 21.39-67.76 176.28" />
    <path class="cls-8" d="m128.53 194.78-1.18 11.16 6.6-9.07z" />
    <path class="cls-1" d="M198.29 113.44 132.76 28.4" />
    <path class="cls-8" d="m136.27 28.2-8.92-6.81 4.31 10.36z" />
    <path class="cls-1" d="m198.29 113.44-62.08-1.2" />
    <path class="cls-8" d="m138.24 109.37-10.89 2.7 10.78 3.11z" />
    <path class="cls-1" d="m198.29 113.44-65.55 85.47" />
    <path class="cls-8" d="m131.64 195.57-4.29 10.37 8.9-6.83z" />
    <path class="cls-1" d="m198.29 201.71-67.7-172.08" />
    <path class="cls-8" d="m134.02 30.41-6.67-9.02 1.26 11.15z" />
    <path class="cls-1" d="m198.29 205.03-65.48-83.7" />
    <path class="cls-8" d="m136.32 121.1-8.97-6.75 4.39 10.33z" />
    <path class="cls-1" d="m198.29 205.03-62.08.8" />
    <path class="cls-8" d="m138.15 202.9-10.8 3.04 10.88 2.77z" />
    <rect class="cls-2" x="321.48" y="2.85" width="83.24" height="83.7" rx="10" ry="10" />
    <rect class="cls-4" x="331.8" y="14.16" width="62.58" height="15.8" rx="3" ry="3" />
    <text class="cls-5" transform="translate(360.1 25.58)">
      <tspan x="0" y="0">0</tspan>
    </text>
    <rect class="cls-4" x="331.8" y="34.66" width="62.58" height="15.8" rx="3" ry="3" />
    <text class="cls-5" transform="translate(360.1 46.08)">
      <tspan x="0" y="0">1</tspan>
    </text>
    <rect class="cls-4" x="331.8" y="55.17" width="62.58" height="15.8" rx="3" ry="3" />
    <text class="cls-5" transform="translate(360.1 66.59)">
      <tspan x="0" y="0">2</tspan>
    </text>
    <rect class="cls-2" x="321.48" y="95.13" width="83.24" height="83.7" rx="10" ry="10" />
    <rect class="cls-4" x="331.8" y="106.44" width="62.58" height="15.8" rx="3" ry="3" />
    <text class="cls-5" transform="translate(360.1 117.86)">
      <tspan x="0" y="0">0</tspan>
    </text>
    <rect class="cls-4" x="331.8" y="126.94" width="62.58" height="15.8" rx="3" ry="3" />
    <text class="cls-5" transform="translate(360.1 138.36)">
      <tspan x="0" y="0">1</tspan>
    </text>
    <rect class="cls-4" x="331.8" y="147.45" width="62.58" height="15.8" rx="3" ry="3" />
    <text class="cls-5" transform="translate(360.1 158.87)">
      <tspan x="0" y="0">2</tspan>
    </text>
    <rect class="cls-2" x="321.48" y="187.41" width="83.24" height="83.7" rx="10" ry="10" />
    <rect class="cls-4" x="331.8" y="198.71" width="62.58" height="15.8" rx="3" ry="3" />
    <text class="cls-5" transform="translate(360.1 210.13)">
      <tspan x="0" y="0">0</tspan>
    </text>
    <rect class="cls-4" x="331.8" y="219.22" width="62.58" height="15.8" rx="3" ry="3" />
    <text class="cls-5" transform="translate(360.1 230.64)">
      <tspan x="0" y="0">1</tspan>
    </text>
    <rect class="cls-4" x="331.8" y="239.73" width="62.58" height="15.8" rx="3" ry="3" />
    <text class="cls-5" transform="translate(360.1 251.15)">
      <tspan x="0" y="0">2</tspan>
    </text>
    <path class="cls-1" d="m331.8 40.07-62.07.4" />
    <path class="cls-8" d="m271.69 37.55-10.82 2.98 10.86 2.83z" />
    <path class="cls-1" d="m331.8 40.07-65.61 87.25" />
    <path class="cls-8" d="m265.06 123.99-4.19 10.41 8.84-6.92z" />
    <path class="cls-1" d="m331.8 40.07-67.72 173.89" />
    <path class="cls-8" d="m262.09 211.06-1.22 11.16 6.64-9.05z" />
    <path class="cls-1" d="m331.8 129.94-65.27-78.5" />
    <path class="cls-8" d="m270.03 51.1-9.16-6.47 4.69 10.19z" />
    <path class="cls-1" d="M331.8 134.4h-62.07" />
    <path class="cls-8" d="m271.71 131.49-10.84 2.91 10.84 2.9z" />
    <path class="cls-1" d="m331.8 134.4-65.47 83.7" />
    <path class="cls-8" d="m265.26 214.75-4.39 10.33 8.97-6.75z" />
    <path class="cls-1" d="M331.8 222.22 264.2 55.67" />
    <path class="cls-8" d="m267.64 56.41-6.77-8.95 1.38 11.14z" />
    <path class="cls-1" d="m331.8 226.91-65.54-85.48" />
    <path class="cls-8" d="m269.77 141.23-8.9-6.83 4.29 10.37z" />
    <path class="cls-1" d="m331.8 226.91-62.08 1.59" />
    <path class="cls-8" d="m271.63 225.55-10.76 3.18 10.91 2.62z" />
  </g>
</svg>