<?xml version="1.0" encoding="UTF-8"?>
<svg id="Layer_2" data-name="Layer 2" xmlns="http://www.w3.org/2000/svg" viewBox="0 0 417.96 273.96">
  <defs>
    <style>
      .cls-1 {
        fill: none;
      }

      .cls-1, .cls-2, .cls-3, .cls-4 {
        stroke: #231f20;
        stroke-miterlimit: 10;
      }

      .cls-5 {
        fill: #fff;
      }

      .cls-5, .cls-6, .cls-7 {
        font-family: TimesNewRomanPS-BoldMT, 'Times New Roman';
        font-size: 12px;
        font-weight: 700;
      }

      .cls-2 {
        fill: #f4d5a4;
      }

      .cls-3 {
        fill: #e6f2db;
      }

      .cls-6 {
        letter-spacing: -.06em;
      }

      .cls-8 {
        fill: #231f20;
        stroke-width: 0px;
      }

      .cls-4 {
        fill: #3c499f;
        stroke-width: 2px;
      }
    </style>
  </defs>
  <g id="Layer_1-2" data-name="Layer 1">
    <g>
      <rect class="cls-3" x=".5" y="185.06" width="416.96" height="88.41"/>
      <text class="cls-7" transform="translate(12.96 232.28)"><tspan x="0" y="0">C</tspan></text>
    </g>
    <g>
      <rect class="cls-3" x=".5" y="92.78" width="416.96" height="88.41"/>
      <text class="cls-7" transform="translate(13.3 140)"><tspan x="0" y="0">B</tspan></text>
    </g>
    <g>
      <rect class="cls-3" x=".5" y=".5" width="416.96" height="88.41"/>
      <text class="cls-6" transform="translate(13.3 47.72)"><tspan x="0" y="0">A</tspan></text>
    </g>
    <g>
      <rect class="cls-2" x="54.44" y="2.85" width="83.24" height="83.7" rx="10" ry="10"/>
      <g>
        <rect class="cls-4" x="64.77" y="14.16" width="62.58" height="15.8" rx="3" ry="3"/>
        <text class="cls-5" transform="translate(93.06 25.58)"><tspan x="0" y="0">0</tspan></text>
      </g>
    </g>
    <g>
      <rect class="cls-2" x="54.44" y="95.13" width="83.24" height="83.7" rx="10" ry="10"/>
      <g>
        <rect class="cls-4" x="64.77" y="106.44" width="62.58" height="15.8" rx="3" ry="3"/>
        <text class="cls-5" transform="translate(93.06 117.86)"><tspan x="0" y="0">0</tspan></text>
      </g>
    </g>
    <g>
      <rect class="cls-2" x="54.44" y="187.41" width="83.24" height="83.7" rx="10" ry="10"/>
      <g>
        <rect class="cls-4" x="64.77" y="198.71" width="62.58" height="15.8" rx="3" ry="3"/>
        <text class="cls-5" transform="translate(93.06 210.13)"><tspan x="0" y="0">0</tspan></text>
      </g>
    </g>
    <g>
      <rect class="cls-2" x="187.96" y="2.85" width="83.24" height="83.7" rx="10" ry="10"/>
      <g>
        <rect class="cls-4" x="198.29" y="14.16" width="62.58" height="15.8" rx="3" ry="3"/>
        <text class="cls-5" transform="translate(226.58 25.58)"><tspan x="0" y="0">0</tspan></text>
      </g>
      <g>
        <rect class="cls-4" x="198.29" y="34.66" width="62.58" height="15.8" rx="3" ry="3"/>
        <text class="cls-5" transform="translate(226.58 46.08)"><tspan x="0" y="0">1</tspan></text>
      </g>
    </g>
    <g>
      <rect class="cls-2" x="187.96" y="95.13" width="83.24" height="83.7" rx="10" ry="10"/>
      <g>
        <rect class="cls-4" x="198.29" y="106.44" width="62.58" height="15.8" rx="3" ry="3"/>
        <text class="cls-5" transform="translate(226.58 117.86)"><tspan x="0" y="0">0</tspan></text>
      </g>
      <g>
        <rect class="cls-4" x="198.29" y="126.94" width="62.58" height="15.8" rx="3" ry="3"/>
        <text class="cls-5" transform="translate(226.58 138.36)"><tspan x="0" y="0">1</tspan></text>
      </g>
    </g>
    <g>
      <rect class="cls-2" x="187.96" y="187.41" width="83.24" height="83.7" rx="10" ry="10"/>
      <g>
        <rect class="cls-4" x="198.29" y="198.71" width="62.58" height="15.8" rx="3" ry="3"/>
        <text class="cls-5" transform="translate(226.58 210.13)"><tspan x="0" y="0">0</tspan></text>
      </g>
      <g>
        <rect class="cls-4" x="198.29" y="219.22" width="62.58" height="15.8" rx="3" ry="3"/>
        <text class="cls-5" transform="translate(226.58 230.64)"><tspan x="0" y="0">1</tspan></text>
      </g>
    </g>
    <g>
      <line class="cls-1" x1="198.29" y1="21.39" x2="136.21" y2="21.39"/>
      <polygon class="cls-8" points="138.19 18.48 127.35 21.39 138.19 24.29 138.19 18.48"/>
    </g>
    <g>
      <line class="cls-1" x1="198.29" y1="21.39" x2="132.81" y2="105.09"/>
      <polygon class="cls-8" points="131.74 101.74 127.35 112.07 136.32 105.32 131.74 101.74"/>
    </g>
    <g>
      <line class="cls-1" x1="198.29" y1="21.39" x2="130.53" y2="197.67"/>
      <polygon class="cls-8" points="128.53 194.78 127.35 205.94 133.95 196.87 128.53 194.78"/>
    </g>
    <g>
      <line class="cls-1" x1="198.29" y1="113.44" x2="132.76" y2="28.4"/>
      <polygon class="cls-8" points="136.27 28.2 127.35 21.39 131.66 31.75 136.27 28.2"/>
    </g>
    <g>
      <line class="cls-1" x1="198.29" y1="113.44" x2="136.21" y2="112.24"/>
      <polygon class="cls-8" points="138.24 109.37 127.35 112.07 138.13 115.18 138.24 109.37"/>
    </g>
    <g>
      <line class="cls-1" x1="198.29" y1="113.44" x2="132.74" y2="198.91"/>
      <polygon class="cls-8" points="131.64 195.57 127.35 205.94 136.25 199.11 131.64 195.57"/>
    </g>
    <g>
      <line class="cls-1" x1="198.29" y1="201.71" x2="130.59" y2="29.63"/>
      <polygon class="cls-8" points="134.02 30.41 127.35 21.39 128.61 32.54 134.02 30.41"/>
    </g>
    <g>
      <line class="cls-1" x1="198.29" y1="205.03" x2="132.81" y2="121.33"/>
      <polygon class="cls-8" points="136.32 121.1 127.35 114.35 131.74 124.68 136.32 121.1"/>
    </g>
    <g>
      <line class="cls-1" x1="198.29" y1="205.03" x2="136.21" y2="205.83"/>
      <polygon class="cls-8" points="138.15 202.9 127.35 205.94 138.23 208.71 138.15 202.9"/>
    </g>
    <g>
      <rect class="cls-2" x="321.48" y="2.85" width="83.24" height="83.7" rx="10" ry="10"/>
      <g>
        <rect class="cls-4" x="331.8" y="14.16" width="62.58" height="15.8" rx="3" ry="3"/>
        <text class="cls-5" transform="translate(360.1 25.58)"><tspan x="0" y="0">0</tspan></text>
      </g>
      <g>
        <rect class="cls-4" x="331.8" y="34.66" width="62.58" height="15.8" rx="3" ry="3"/>
        <text class="cls-5" transform="translate(360.1 46.08)"><tspan x="0" y="0">1</tspan></text>
      </g>
      <g>
        <rect class="cls-4" x="331.8" y="55.17" width="62.58" height="15.8" rx="3" ry="3"/>
        <text class="cls-5" transform="translate(360.1 66.59)"><tspan x="0" y="0">2</tspan></text>
      </g>
    </g>
    <g>
      <rect class="cls-2" x="321.48" y="95.13" width="83.24" height="83.7" rx="10" ry="10"/>
      <g>
        <rect class="cls-4" x="331.8" y="106.44" width="62.58" height="15.8" rx="3" ry="3"/>
        <text class="cls-5" transform="translate(360.1 117.86)"><tspan x="0" y="0">0</tspan></text>
      </g>
      <g>
        <rect class="cls-4" x="331.8" y="126.94" width="62.58" height="15.8" rx="3" ry="3"/>
        <text class="cls-5" transform="translate(360.1 138.36)"><tspan x="0" y="0">1</tspan></text>
      </g>
      <g>
        <rect class="cls-4" x="331.8" y="147.45" width="62.58" height="15.8" rx="3" ry="3"/>
        <text class="cls-5" transform="translate(360.1 158.87)"><tspan x="0" y="0">2</tspan></text>
      </g>
    </g>
    <g>
      <rect class="cls-2" x="321.48" y="187.41" width="83.24" height="83.7" rx="10" ry="10"/>
      <g>
        <rect class="cls-4" x="331.8" y="198.71" width="62.58" height="15.8" rx="3" ry="3"/>
        <text class="cls-5" transform="translate(360.1 210.13)"><tspan x="0" y="0">0</tspan></text>
      </g>
      <g>
        <rect class="cls-4" x="331.8" y="219.22" width="62.58" height="15.8" rx="3" ry="3"/>
        <text class="cls-5" transform="translate(360.1 230.64)"><tspan x="0" y="0">1</tspan></text>
      </g>
      <g>
        <rect class="cls-4" x="331.8" y="239.73" width="62.58" height="15.8" rx="3" ry="3"/>
        <text class="cls-5" transform="translate(360.1 251.15)"><tspan x="0" y="0">2</tspan></text>
      </g>
    </g>
    <g>
      <line class="cls-1" x1="331.8" y1="40.07" x2="269.73" y2="40.47"/>
      <polygon class="cls-8" points="271.69 37.55 260.87 40.53 271.73 43.36 271.69 37.55"/>
    </g>
    <g>
      <line class="cls-1" x1="331.8" y1="40.07" x2="266.19" y2="127.32"/>
      <polygon class="cls-8" points="265.06 123.99 260.87 134.4 269.71 127.48 265.06 123.99"/>
    </g>
    <g>
      <line class="cls-1" x1="331.8" y1="40.07" x2="264.08" y2="213.96"/>
      <polygon class="cls-8" points="262.09 211.06 260.87 222.22 267.51 213.17 262.09 211.06"/>
    </g>
    <g>
      <line class="cls-1" x1="331.8" y1="129.94" x2="266.53" y2="51.44"/>
      <polygon class="cls-8" points="270.03 51.1 260.87 44.63 265.56 54.82 270.03 51.1"/>
    </g>
    <g>
      <line class="cls-1" x1="331.8" y1="134.4" x2="269.73" y2="134.4"/>
      <polygon class="cls-8" points="271.71 131.49 260.87 134.4 271.71 137.3 271.71 131.49"/>
    </g>
    <g>
      <line class="cls-1" x1="331.8" y1="134.4" x2="266.33" y2="218.1"/>
      <polygon class="cls-8" points="265.26 214.75 260.87 225.08 269.84 218.33 265.26 214.75"/>
    </g>
    <g>
      <line class="cls-1" x1="331.8" y1="222.22" x2="264.2" y2="55.67"/>
      <polygon class="cls-8" points="267.64 56.41 260.87 47.46 262.25 58.6 267.64 56.41"/>
    </g>
    <g>
      <line class="cls-1" x1="331.8" y1="226.91" x2="266.26" y2="141.43"/>
      <polygon class="cls-8" points="269.77 141.23 260.87 134.4 265.16 144.77 269.77 141.23"/>
    </g>
    <g>
      <line class="cls-1" x1="331.8" y1="226.91" x2="269.72" y2="228.5"/>
      <polygon class="cls-8" points="271.63 225.55 260.87 228.73 271.78 231.35 271.63 225.55"/>
    </g>
  </g>
</svg>