<?xml version="1.0" encoding="UTF-8"?><svg id="b" xmlns="http://www.w3.org/2000/svg" viewBox="0 0 385.62 161.95"><defs><style>.d{stroke:#3a4198;}.d,.e,.f,.g{stroke-miterlimit:10;}.d,.e,.g{fill:none;stroke-width:2px;}.h{fill:#231f20;font-family:TimesNewRomanPSMT, 'Times New Roman';font-size:12px;}.e{stroke:#393f99;}.f{fill:#fff;stroke:#231f20;}.i{fill:#a52a23;}.i,.j,.k{stroke-width:0px;}.j{fill:#3a4198;}.g{stroke:#a52a23;}.k{fill:#393f99;}</style></defs><g id="c"><circle class="f" cx="15.48" cy="85.38" r="14.98"/><text class="h" transform="translate(12.15 88.53)"><tspan x="0" y="0">S</tspan></text><circle class="f" cx="76.46" cy="24.09" r="14.98"/><text class="h" transform="translate(65.13 27.24)"><tspan x="0" y="0">AB1</tspan></text><circle class="f" cx="134.92" cy="24.09" r="14.98"/><text class="h" transform="translate(123.59 27.24)"><tspan x="0" y="0">AB2</tspan></text><circle class="f" cx="193.38" cy="24.09" r="14.98"/><text class="h" transform="translate(182.04 27.24)"><tspan x="0" y="0">AB3</tspan></text><line class="e" x1="24.65" y1="73.54" x2="55.69" y2="34.89"/><path class="k" d="m54.34,36.56l-5.02-.66.02-.18,6.6-3.74c1.96-1.58,3.92-3.15,5.88-4.73-1.12,2.25-2.23,4.51-3.35,6.76l-2.23,7.25-.15.07-1.74-4.77Z"/><circle class="f" cx="76.46" cy="137.44" r="14.98"/><text class="h" transform="translate(65.13 140.59)"><tspan x="0" y="0">BA1</tspan></text><circle class="f" cx="134.92" cy="137.44" r="14.98"/><text class="h" transform="translate(123.59 140.59)"><tspan x="0" y="0">BA2</tspan></text><circle class="f" cx="193.38" cy="137.44" r="14.98"/><text class="h" transform="translate(182.04 140.59)"><tspan x="0" y="0">BA3</tspan></text><line class="g" x1="28.16" y1="93.38" x2="54.3" y2="129.22"/><path class="i" d="m53.03,127.48l1.94-4.67.17.06,1.89,7.35c1.01,2.3,2.02,4.61,3.03,6.91-1.88-1.67-3.77-3.33-5.65-5l-6.42-4.05-.03-.16,5.06-.44Z"/><line class="g" x1="70.93" y1="38.75" x2="71.31" y2="115.4"/><path class="i" d="m71.3,113.25l4.31-2.65.1.15-2.77,7.06c-.53,2.46-1.06,4.92-1.59,7.38-.55-2.45-1.1-4.91-1.66-7.36l-2.83-7.04.07-.15,4.36,2.61Z"/><line class="g" x1="133.6" y1="39.01" x2="86.98" y2="115.12"/><path class="i" d="m88.11,113.29l5.06.02v.18s-6.06,4.55-6.06,4.55c-1.74,1.81-3.49,3.62-5.23,5.44.82-2.38,1.64-4.75,2.47-7.13l1.29-7.47.14-.09,2.33,4.51Z"/><line class="g" x1="193.38" y1="39.07" x2="95.27" y2="119.38"/><path class="i" d="m96.94,118.02l4.77,1.68-.05.17-7.23,2.3c-2.24,1.14-4.49,2.28-6.73,3.41,1.56-1.97,3.12-3.95,4.67-5.92l3.68-6.63.16-.04.72,5.03Z"/><line class="g" x1="91.45" y1="137.44" x2="110.15" y2="137.44"/><path class="i" d="m108,137.44l-2.63-4.32.15-.1,7.05,2.8c2.46.54,4.91,1.08,7.37,1.62-2.46.54-4.91,1.08-7.37,1.62l-7.05,2.8-.15-.07,2.63-4.35Z"/><line class="g" x1="149.91" y1="137.44" x2="168.61" y2="137.44"/><path class="i" d="m166.46,137.44l-2.63-4.32.15-.1,7.05,2.8c2.46.54,4.91,1.08,7.37,1.62-2.46.54-4.91,1.08-7.37,1.62l-7.05,2.8-.15-.07,2.63-4.35Z"/><line class="d" x1="78.54" y1="122.6" x2="78.9" y2="49.69"/><path class="j" d="m78.89,51.84l-4.34,2.61-.1-.15,2.83-7.04c.55-2.45,1.1-4.91,1.66-7.36.53,2.46,1.06,4.92,1.59,7.38l2.77,7.06-.07.15-4.33-2.65Z"/><line class="d" x1="133.6" y1="122.84" x2="86.98" y2="46.73"/><path class="j" d="m88.11,48.57l-2.31,4.5-.16-.07-1.29-7.47c-.82-2.38-1.64-4.75-2.47-7.13,1.74,1.81,3.49,3.62,5.23,5.44l6.07,4.55v.16s-5.07.03-5.07.03Z"/><line class="d" x1="193.38" y1="122.78" x2="95.27" y2="42.47"/><path class="j" d="m96.94,43.84l-.7,5.01-.18-.02-3.68-6.63c-1.56-1.97-3.12-3.95-4.67-5.92,2.24,1.14,4.49,2.28,6.73,3.41l7.23,2.3.07.15-4.79,1.7Z"/><line class="d" x1="91.45" y1="24.42" x2="110.15" y2="24.42"/><path class="j" d="m108,24.42l-2.63-4.32.15-.1,7.05,2.8c2.46.54,4.91,1.08,7.37,1.62-2.46.54-4.91,1.08-7.37,1.62l-7.05,2.8-.15-.07,2.63-4.35Z"/><line class="d" x1="149.91" y1="24.42" x2="168.61" y2="24.42"/><path class="j" d="m166.46,24.42l-2.63-4.32.15-.1,7.05,2.8c2.46.54,4.91,1.08,7.37,1.62-2.46.54-4.91,1.08-7.37,1.62l-7.05,2.8-.15-.07,2.63-4.35Z"/><circle class="f" cx="251" cy="24.09" r="14.98"/><text class="h" transform="translate(239.66 27.24)"><tspan x="0" y="0">AB4</tspan></text><circle class="f" cx="309.45" cy="24.09" r="14.98"/><text class="h" transform="translate(298.12 27.24)"><tspan x="0" y="0">AB5</tspan></text><circle class="f" cx="367.91" cy="24.09" r="17.21"/><circle class="f" cx="367.91" cy="24.09" r="14.98"/><text class="h" transform="translate(356.57 27.24)"><tspan x="0" y="0">AB6</tspan></text><circle class="f" cx="251" cy="137.44" r="14.98"/><text class="h" transform="translate(239.66 140.59)"><tspan x="0" y="0">BA4</tspan></text><circle class="f" cx="309.45" cy="137.44" r="14.98"/><text class="h" transform="translate(298.12 140.59)"><tspan x="0" y="0">BA5</tspan></text><circle class="f" cx="367.91" cy="137.44" r="17.21"/><circle class="f" cx="367.91" cy="137.44" r="14.98"/><text class="h" transform="translate(356.57 140.59)"><tspan x="0" y="0">BA6</tspan></text><line class="g" x1="265.98" y1="24.09" x2="284.68" y2="24.09"/><path class="i" d="m282.53,24.09l-2.63-4.32.15-.1,7.05,2.8c2.46.54,4.91,1.08,7.37,1.62-2.46.54-4.91,1.08-7.37,1.62l-7.05,2.8-.15-.07,2.63-4.35Z"/><line class="g" x1="324.44" y1="24.09" x2="343.14" y2="24.09"/><path class="i" d="m340.99,24.09l-2.63-4.32.15-.1,7.05,2.8c2.46.54,4.91,1.08,7.37,1.62-2.46.54-4.91,1.08-7.37,1.62l-7.05,2.8-.15-.07,2.63-4.35Z"/><line class="g" x1="208.36" y1="24.09" x2="226.23" y2="24.09"/><path class="i" d="m224.07,24.09l-2.63-4.32.15-.1,7.05,2.8c2.46.54,4.91,1.08,7.37,1.62-2.46.54-4.91,1.08-7.37,1.62l-7.05,2.8-.15-.07,2.63-4.35Z"/><path class="d" d="m239.54,33.75c-17.1,14.21-1.15,25.61,7.96,25.61,7.9,0,25.49-5.65,19.77-19.24"/><path class="j" d="m267.95,41.79l-1.97,3.73-.13-.06-1.02-6.24c-.67-1.99-1.33-3.97-1.99-5.96,1.44,1.52,2.88,3.05,4.31,4.57l5.02,3.84v.14s-4.22-.02-4.22-.02Z"/><path class="d" d="m309.45,9.11c.02-14.13-26.77-7.01-40.45.49"/><path class="j" d="m270.59,8.73l3.84,1.75-.06.14-6.17,1.38c-1.95.78-3.89,1.56-5.84,2.34,1.44-1.52,2.88-3.05,4.32-4.57l3.54-5.23.14-.02.23,4.23Z"/><line class="d" x1="265.98" y1="137.44" x2="284.68" y2="137.44"/><path class="j" d="m282.53,137.44l-2.63-4.32.15-.1,7.05,2.8c2.46.54,4.91,1.08,7.37,1.62-2.46.54-4.91,1.08-7.37,1.62l-7.05,2.8-.15-.07,2.63-4.35Z"/><line class="d" x1="324.44" y1="137.44" x2="343.14" y2="137.44"/><path class="j" d="m340.99,137.44l-2.63-4.32.15-.1,7.05,2.8c2.46.54,4.91,1.08,7.37,1.62-2.46.54-4.91,1.08-7.37,1.62l-7.05,2.8-.15-.07,2.63-4.35Z"/><line class="d" x1="208.36" y1="137.44" x2="226.23" y2="137.44"/><path class="j" d="m224.07,137.44l-2.63-4.32.15-.1,7.05,2.8c2.46.54,4.91,1.08,7.37,1.62-2.46.54-4.91,1.08-7.37,1.62l-7.05,2.8-.15-.07,2.63-4.35Z"/><path class="g" d="m238.29,126.73c-17.1-14.21-1.15-25.61,7.96-25.61,7.9,0,25.49,5.65,19.77,19.24"/><path class="i" d="m266.71,118.68l4.22-.03v.15s-5.01,3.84-5.01,3.84c-1.44,1.53-2.88,3.05-4.31,4.57.67-1.99,1.33-3.97,1.99-5.96l1.02-6.24.12-.07,1.98,3.74Z"/><path class="g" d="m307.37,152.85c.02,14.13-26.77,7.01-40.45-.49"/><path class="i" d="m268.51,153.22l-.22,4.21h-.15s-3.54-5.24-3.54-5.24c-1.44-1.52-2.88-3.05-4.32-4.57,1.95.78,3.89,1.56,5.84,2.34l6.17,1.38.07.12-3.85,1.76Z"/></g></svg>